<mxfile host="Electron" modified="2023-06-06T14:05:25.172Z" agent="Mozilla/5.0 (Windows NT 10.0; Win64; x64) AppleWebKit/537.36 (KHTML, like Gecko) draw.io/21.2.8 Chrome/112.0.5615.165 Electron/24.2.0 Safari/537.36" etag="tdtpmDPPEblPIlibvij1" version="21.2.8" type="device">
  <diagram name="Страница 1" id="uDetZJTYRbv2y3yAewmw">
    <mxGraphModel dx="1418" dy="828" grid="1" gridSize="10" guides="1" tooltips="1" connect="1" arrows="1" fold="1" page="1" pageScale="1" pageWidth="827" pageHeight="1169" math="0" shadow="0">
      <root>
        <mxCell id="0" />
        <mxCell id="1" parent="0" />
        <mxCell id="3Gu5FsRK5j2esvPoAoR8-3" value="" style="edgeStyle=orthogonalEdgeStyle;rounded=0;orthogonalLoop=1;jettySize=auto;html=1;" parent="1" source="3Gu5FsRK5j2esvPoAoR8-1" target="3Gu5FsRK5j2esvPoAoR8-2" edge="1">
          <mxGeometry relative="1" as="geometry" />
        </mxCell>
        <mxCell id="3Gu5FsRK5j2esvPoAoR8-1" value="start" style="ellipse;whiteSpace=wrap;html=1;fontSize=16;" parent="1" vertex="1">
          <mxGeometry x="245" y="20" width="120" height="60" as="geometry" />
        </mxCell>
        <mxCell id="3Gu5FsRK5j2esvPoAoR8-5" value="" style="edgeStyle=orthogonalEdgeStyle;rounded=0;orthogonalLoop=1;jettySize=auto;html=1;" parent="1" source="3Gu5FsRK5j2esvPoAoR8-2" target="3Gu5FsRK5j2esvPoAoR8-4" edge="1">
          <mxGeometry relative="1" as="geometry" />
        </mxCell>
        <mxCell id="3Gu5FsRK5j2esvPoAoR8-2" value="textArray(0)&lt;br&gt;textArray(1)&lt;br&gt;textArray(2)&lt;br&gt;textArray(3)&lt;br&gt;textArray(4)" style="shape=parallelogram;perimeter=parallelogramPerimeter;whiteSpace=wrap;html=1;fixedSize=1;" parent="1" vertex="1">
          <mxGeometry x="200" y="110" width="210" height="90" as="geometry" />
        </mxCell>
        <mxCell id="3Gu5FsRK5j2esvPoAoR8-9" value="" style="edgeStyle=orthogonalEdgeStyle;rounded=0;orthogonalLoop=1;jettySize=auto;html=1;" parent="1" source="3Gu5FsRK5j2esvPoAoR8-4" target="3Gu5FsRK5j2esvPoAoR8-8" edge="1">
          <mxGeometry relative="1" as="geometry" />
        </mxCell>
        <mxCell id="3Gu5FsRK5j2esvPoAoR8-4" value="textArray.length = 5&lt;br&gt;newSize = 0&lt;br&gt;i = 0&lt;br&gt;n = 0" style="rounded=0;whiteSpace=wrap;html=1;" parent="1" vertex="1">
          <mxGeometry x="245" y="230" width="120" height="60" as="geometry" />
        </mxCell>
        <mxCell id="3Gu5FsRK5j2esvPoAoR8-27" style="edgeStyle=orthogonalEdgeStyle;rounded=0;orthogonalLoop=1;jettySize=auto;html=1;entryX=0.5;entryY=0;entryDx=0;entryDy=0;" parent="1" source="3Gu5FsRK5j2esvPoAoR8-8" target="3Gu5FsRK5j2esvPoAoR8-13" edge="1">
          <mxGeometry relative="1" as="geometry" />
        </mxCell>
        <mxCell id="3Gu5FsRK5j2esvPoAoR8-28" value="Yes" style="edgeLabel;html=1;align=center;verticalAlign=middle;resizable=0;points=[];" parent="3Gu5FsRK5j2esvPoAoR8-27" vertex="1" connectable="0">
          <mxGeometry x="-0.3626" y="2" relative="1" as="geometry">
            <mxPoint as="offset" />
          </mxGeometry>
        </mxCell>
        <mxCell id="3Gu5FsRK5j2esvPoAoR8-30" value="" style="edgeStyle=orthogonalEdgeStyle;rounded=0;orthogonalLoop=1;jettySize=auto;html=1;entryX=0.5;entryY=0;entryDx=0;entryDy=0;" parent="1" source="3Gu5FsRK5j2esvPoAoR8-8" target="3Gu5FsRK5j2esvPoAoR8-46" edge="1">
          <mxGeometry relative="1" as="geometry">
            <mxPoint x="440" y="350" as="targetPoint" />
          </mxGeometry>
        </mxCell>
        <mxCell id="XqIrEg4Aa2R3nYM8zqA8-1" value="No" style="edgeLabel;html=1;align=center;verticalAlign=middle;resizable=0;points=[];" vertex="1" connectable="0" parent="3Gu5FsRK5j2esvPoAoR8-30">
          <mxGeometry x="-0.6095" relative="1" as="geometry">
            <mxPoint as="offset" />
          </mxGeometry>
        </mxCell>
        <mxCell id="3Gu5FsRK5j2esvPoAoR8-8" value="i &amp;lt; textArray.length" style="rhombus;whiteSpace=wrap;html=1;" parent="1" vertex="1">
          <mxGeometry x="230" y="320" width="150" height="60" as="geometry" />
        </mxCell>
        <mxCell id="3Gu5FsRK5j2esvPoAoR8-22" style="edgeStyle=orthogonalEdgeStyle;rounded=0;orthogonalLoop=1;jettySize=auto;html=1;exitX=1;exitY=0.5;exitDx=0;exitDy=0;entryX=0;entryY=0.5;entryDx=0;entryDy=0;" parent="1" source="3Gu5FsRK5j2esvPoAoR8-10" target="3Gu5FsRK5j2esvPoAoR8-8" edge="1">
          <mxGeometry relative="1" as="geometry" />
        </mxCell>
        <mxCell id="3Gu5FsRK5j2esvPoAoR8-10" value="i = i + 1" style="rounded=0;whiteSpace=wrap;html=1;" parent="1" vertex="1">
          <mxGeometry x="30" y="337.5" width="50" height="25" as="geometry" />
        </mxCell>
        <mxCell id="3Gu5FsRK5j2esvPoAoR8-16" style="edgeStyle=orthogonalEdgeStyle;rounded=0;orthogonalLoop=1;jettySize=auto;html=1;entryX=0.6;entryY=0.98;entryDx=0;entryDy=0;entryPerimeter=0;" parent="1" source="3Gu5FsRK5j2esvPoAoR8-13" target="3Gu5FsRK5j2esvPoAoR8-10" edge="1">
          <mxGeometry relative="1" as="geometry">
            <mxPoint x="90" y="430" as="targetPoint" />
          </mxGeometry>
        </mxCell>
        <mxCell id="3Gu5FsRK5j2esvPoAoR8-23" value="" style="edgeStyle=orthogonalEdgeStyle;rounded=0;orthogonalLoop=1;jettySize=auto;html=1;" parent="1" source="3Gu5FsRK5j2esvPoAoR8-13" target="3Gu5FsRK5j2esvPoAoR8-14" edge="1">
          <mxGeometry relative="1" as="geometry" />
        </mxCell>
        <mxCell id="3Gu5FsRK5j2esvPoAoR8-13" value="textArray(i).length &amp;lt;= 3" style="rhombus;whiteSpace=wrap;html=1;" parent="1" vertex="1">
          <mxGeometry x="220" y="430" width="170" height="80" as="geometry" />
        </mxCell>
        <mxCell id="3Gu5FsRK5j2esvPoAoR8-24" style="edgeStyle=orthogonalEdgeStyle;rounded=0;orthogonalLoop=1;jettySize=auto;html=1;entryX=0.6;entryY=0.96;entryDx=0;entryDy=0;entryPerimeter=0;" parent="1" source="3Gu5FsRK5j2esvPoAoR8-14" target="3Gu5FsRK5j2esvPoAoR8-10" edge="1">
          <mxGeometry relative="1" as="geometry" />
        </mxCell>
        <mxCell id="3Gu5FsRK5j2esvPoAoR8-14" value="newSize = newSize + 1&lt;br&gt;Array.Resize(newSize)&lt;br&gt;newTextArray(n) = textArray(i)&lt;br style=&quot;border-color: var(--border-color);&quot;&gt;n = n + 1" style="rounded=0;whiteSpace=wrap;html=1;" parent="1" vertex="1">
          <mxGeometry x="208.12" y="570" width="193.75" height="100" as="geometry" />
        </mxCell>
        <mxCell id="3Gu5FsRK5j2esvPoAoR8-18" value="Yes" style="text;html=1;align=center;verticalAlign=middle;resizable=0;points=[];autosize=1;strokeColor=none;fillColor=none;" parent="1" vertex="1">
          <mxGeometry x="290" y="510" width="40" height="30" as="geometry" />
        </mxCell>
        <mxCell id="3Gu5FsRK5j2esvPoAoR8-19" value="No" style="text;html=1;align=center;verticalAlign=middle;resizable=0;points=[];autosize=1;strokeColor=none;fillColor=none;" parent="1" vertex="1">
          <mxGeometry x="190" y="470" width="40" height="30" as="geometry" />
        </mxCell>
        <mxCell id="3Gu5FsRK5j2esvPoAoR8-50" value="" style="edgeStyle=orthogonalEdgeStyle;rounded=0;orthogonalLoop=1;jettySize=auto;html=1;" parent="1" source="3Gu5FsRK5j2esvPoAoR8-46" target="3Gu5FsRK5j2esvPoAoR8-49" edge="1">
          <mxGeometry relative="1" as="geometry" />
        </mxCell>
        <mxCell id="3Gu5FsRK5j2esvPoAoR8-46" value="textArray&lt;br&gt;newTextArray" style="shape=document;whiteSpace=wrap;html=1;boundedLbl=1;" parent="1" vertex="1">
          <mxGeometry x="440" y="440" width="120" height="80" as="geometry" />
        </mxCell>
        <mxCell id="3Gu5FsRK5j2esvPoAoR8-49" value="finish" style="ellipse;whiteSpace=wrap;html=1;" parent="1" vertex="1">
          <mxGeometry x="440" y="580" width="120" height="60" as="geometry" />
        </mxCell>
      </root>
    </mxGraphModel>
  </diagram>
</mxfile>
